#Comment line ignore any data following # character 
#Hierarchical Translation and Rotation (.htr) file 
[Header]	
#Header keywords are followed by a single value 
FileType HTR		#Single word string
DataType HTRS		#Translation followed by rotation and scale data
FileVersion 1		#integer
NumSegments 84		#integer
NumFrames 2		#integer
DataFrameRate 30		#integer, data frame rate in this file
EulerRotationOrder ZYX
CalibrationUnits mm
RotationUnits Degrees
GlobalAxisofGravity Y
BoneLengthAxis Y
ScaleFactor 1.00
[SegmentNames&Hierarchy]
#CHILD	PARENT
MASTER GLOBAL
root MASTER
chest root
L_mid_tent01 root
R_mid_tent01 root
spine01 root
Bip01_Neck chest
L_humerus chest
R_humerus chest
weapon_bone chest
Bip01_Head Bip01_Neck
eye_left_bone Bip01_Head
eye_right_bone Bip01_Head
L_forearm L_humerus
L_front_hand L_forearm
L_weapon_bone L_forearm
L_front_hand01_01 L_front_hand
L_front_hand02_01 L_front_hand
L_front_hand03_01 L_front_hand
L_front_hand01_02 L_front_hand01_01
L_front_hand02_02 L_front_hand02_01
L_front_hand03_02 L_front_hand03_01
R_forearm R_humerus
R_front_hand R_forearm
R_weapon_bone R_forearm
R_front_hand01_01 R_front_hand
R_front_hand02_01 R_front_hand
R_front_hand03_01 R_front_hand
R_front_hand01_02 R_front_hand01_01
R_front_hand02_02 R_front_hand02_01
R_front_hand03_02 R_front_hand03_01
null_rope01_connect L_mid_tent01
Rope1_Seg01 null_rope01_connect
Rope1_Seg02 Rope1_Seg01
Rope1_Seg03 Rope1_Seg02
Rope1_Seg04 Rope1_Seg03
Rope1_Seg05 Rope1_Seg04
Rope1_Seg06 Rope1_Seg05
Rope1_Seg07 Rope1_Seg06
Rope1_Seg09 Rope1_Seg07
L_mid_hand01 Rope1_Seg09
L_mid_hand02 Rope1_Seg09
L_mid_hand03 Rope1_Seg09
null_rope02_connect R_mid_tent01
Rope2_Seg01 null_rope02_connect
Rope2_Seg02 Rope2_Seg01
Rope2_Seg03 Rope2_Seg02
Rope2_Seg04 Rope2_Seg03
Rope2_Seg05 Rope2_Seg04
Rope2_Seg06 Rope2_Seg05
Rope2_Seg07 Rope2_Seg06
Rope2_Seg09 Rope2_Seg07
R_mid_hand01 Rope2_Seg09
R_mid_hand02 Rope2_Seg09
R_mid_hand03 Rope2_Seg09
spine02 spine01
spine03 spine02
pelvis spine03
null_rope03_connect pelvis
null_rope04_connect pelvis
Rope3_Seg01 null_rope03_connect
Rope3_Seg02 Rope3_Seg01
Rope3_Seg03 Rope3_Seg02
Rope3_Seg04 Rope3_Seg03
Rope3_Seg05 Rope3_Seg04
Rope3_Seg06 Rope3_Seg05
Rope3_Seg07 Rope3_Seg06
Rope3_Seg08 Rope3_Seg07
Rope3_Seg09 Rope3_Seg08
R_rear_hand01 Rope3_Seg09
R_rear_hand02 Rope3_Seg09
R_rear_hand03 Rope3_Seg09
Rope4_Seg01 null_rope04_connect
Rope4_Seg02 Rope4_Seg01
Rope4_Seg03 Rope4_Seg02
Rope4_Seg04 Rope4_Seg03
Rope4_Seg05 Rope4_Seg04
Rope4_Seg06 Rope4_Seg05
Rope4_Seg07 Rope4_Seg06
Rope4_Seg08 Rope4_Seg07
Rope4_Seg09 Rope4_Seg08
L_rear_hand01 Rope4_Seg09
L_rear_hand02 Rope4_Seg09
L_rear_hand03 Rope4_Seg09
[BasePosition]
#SegmentName Tx, Ty, Tz, Rx, Ry, Rz, BoneLength
MASTER 0.000000 0.000000 0.000000 -90.000000 0.000000 0.000000 10.000000 
root 0.000000 0.000000 0.000000 0.000000 0.000000 0.000000 10.000000 
chest 0.000000 0.000000 0.000000 0.000000 0.000000 0.000000 10.000000 
L_mid_tent01 0.000000 0.000000 0.000000 0.000000 0.000000 0.000000 10.000000 
R_mid_tent01 0.000000 0.000000 0.000000 0.000000 0.000000 0.000000 10.000000 
spine01 0.000000 0.000000 0.000000 0.000000 0.000000 0.000000 10.000000 
Bip01_Neck 0.000000 0.000000 0.000000 0.000000 0.000000 0.000000 10.000000 
L_humerus 0.000000 0.000000 0.000000 0.000000 0.000000 0.000000 10.000000 
R_humerus 0.000000 0.000000 0.000000 0.000000 0.000000 0.000000 10.000000 
weapon_bone 0.000000 0.000000 0.000000 0.000000 0.000000 0.000000 10.000000 
Bip01_Head 0.000000 0.000000 0.000000 0.000000 0.000000 0.000000 10.000000 
eye_left_bone 0.000000 0.000000 0.000000 0.000000 0.000000 0.000000 10.000000 
eye_right_bone 0.000000 0.000000 0.000000 0.000000 0.000000 0.000000 10.000000 
L_forearm 0.000000 0.000000 0.000000 0.000000 0.000000 0.000000 10.000000 
L_front_hand 0.000000 0.000000 0.000000 0.000000 0.000000 0.000000 10.000000 
L_weapon_bone 0.000000 0.000000 0.000000 0.000000 0.000000 0.000000 10.000000 
L_front_hand01_01 0.000000 0.000000 0.000000 0.000000 0.000000 0.000000 10.000000 
L_front_hand02_01 0.000000 0.000000 0.000000 0.000000 0.000000 0.000000 10.000000 
L_front_hand03_01 0.000000 0.000000 0.000000 0.000000 0.000000 0.000000 10.000000 
L_front_hand01_02 0.000000 0.000000 0.000000 0.000000 0.000000 0.000000 10.000000 
L_front_hand02_02 0.000000 0.000000 0.000000 0.000000 0.000000 0.000000 10.000000 
L_front_hand03_02 0.000000 0.000000 0.000000 0.000000 0.000000 0.000000 10.000000 
R_forearm 0.000000 0.000000 0.000000 0.000000 0.000000 0.000000 10.000000 
R_front_hand 0.000000 0.000000 0.000000 0.000000 0.000000 0.000000 10.000000 
R_weapon_bone 0.000000 0.000000 0.000000 0.000000 0.000000 0.000000 10.000000 
R_front_hand01_01 0.000000 0.000000 0.000000 0.000000 0.000000 0.000000 10.000000 
R_front_hand02_01 0.000000 0.000000 0.000000 0.000000 0.000000 0.000000 10.000000 
R_front_hand03_01 0.000000 0.000000 0.000000 0.000000 0.000000 0.000000 10.000000 
R_front_hand01_02 0.000000 0.000000 0.000000 0.000000 0.000000 0.000000 10.000000 
R_front_hand02_02 0.000000 0.000000 0.000000 0.000000 0.000000 0.000000 10.000000 
R_front_hand03_02 0.000000 0.000000 0.000000 0.000000 0.000000 0.000000 10.000000 
null_rope01_connect 0.000000 0.000000 0.000000 0.000000 0.000000 0.000000 10.000000 
Rope1_Seg01 0.000000 0.000000 0.000000 0.000000 0.000000 0.000000 10.000000 
Rope1_Seg02 0.000000 0.000000 0.000000 0.000000 0.000000 0.000000 10.000000 
Rope1_Seg03 0.000000 0.000000 0.000000 0.000000 0.000000 0.000000 10.000000 
Rope1_Seg04 0.000000 0.000000 0.000000 0.000000 0.000000 0.000000 10.000000 
Rope1_Seg05 0.000000 0.000000 0.000000 0.000000 0.000000 0.000000 10.000000 
Rope1_Seg06 0.000000 0.000000 0.000000 0.000000 0.000000 0.000000 10.000000 
Rope1_Seg07 0.000000 0.000000 0.000000 0.000000 0.000000 0.000000 10.000000 
Rope1_Seg09 0.000000 0.000000 0.000000 0.000000 0.000000 0.000000 10.000000 
L_mid_hand01 0.000000 0.000000 0.000000 0.000000 0.000000 0.000000 10.000000 
L_mid_hand02 0.000000 0.000000 0.000000 0.000000 0.000000 0.000000 10.000000 
L_mid_hand03 0.000000 0.000000 0.000000 0.000000 0.000000 0.000000 10.000000 
null_rope02_connect 0.000000 0.000000 0.000000 0.000000 0.000000 0.000000 10.000000 
Rope2_Seg01 0.000000 0.000000 0.000000 0.000000 0.000000 0.000000 10.000000 
Rope2_Seg02 0.000000 0.000000 0.000000 0.000000 0.000000 0.000000 10.000000 
Rope2_Seg03 0.000000 0.000000 0.000000 0.000000 0.000000 0.000000 10.000000 
Rope2_Seg04 0.000000 0.000000 0.000000 0.000000 0.000000 0.000000 10.000000 
Rope2_Seg05 0.000000 0.000000 0.000000 0.000000 0.000000 0.000000 10.000000 
Rope2_Seg06 0.000000 0.000000 0.000000 0.000000 0.000000 0.000000 10.000000 
Rope2_Seg07 0.000000 0.000000 0.000000 0.000000 0.000000 0.000000 10.000000 
Rope2_Seg09 0.000000 0.000000 0.000000 0.000000 0.000000 0.000000 10.000000 
R_mid_hand01 0.000000 0.000000 0.000000 0.000000 0.000000 0.000000 10.000000 
R_mid_hand02 0.000000 0.000000 0.000000 0.000000 0.000000 0.000000 10.000000 
R_mid_hand03 0.000000 0.000000 0.000000 0.000000 0.000000 0.000000 10.000000 
spine02 0.000000 0.000000 0.000000 0.000000 0.000000 0.000000 10.000000 
spine03 0.000000 0.000000 0.000000 0.000000 0.000000 0.000000 10.000000 
pelvis 0.000000 0.000000 0.000000 0.000000 0.000000 0.000000 10.000000 
null_rope03_connect 0.000000 0.000000 0.000000 0.000000 0.000000 0.000000 10.000000 
null_rope04_connect 0.000000 0.000000 0.000000 0.000000 0.000000 0.000000 10.000000 
Rope3_Seg01 0.000000 0.000000 0.000000 0.000000 0.000000 0.000000 10.000000 
Rope3_Seg02 0.000000 0.000000 0.000000 0.000000 0.000000 0.000000 10.000000 
Rope3_Seg03 0.000000 0.000000 0.000000 0.000000 0.000000 0.000000 10.000000 
Rope3_Seg04 0.000000 0.000000 0.000000 0.000000 0.000000 0.000000 10.000000 
Rope3_Seg05 0.000000 0.000000 0.000000 0.000000 0.000000 0.000000 10.000000 
Rope3_Seg06 0.000000 0.000000 0.000000 0.000000 0.000000 0.000000 10.000000 
Rope3_Seg07 0.000000 0.000000 0.000000 0.000000 0.000000 0.000000 10.000000 
Rope3_Seg08 0.000000 0.000000 0.000000 0.000000 0.000000 0.000000 10.000000 
Rope3_Seg09 0.000000 0.000000 0.000000 0.000000 0.000000 0.000000 10.000000 
R_rear_hand01 0.000000 0.000000 0.000000 0.000000 0.000000 0.000000 10.000000 
R_rear_hand02 0.000000 0.000000 0.000000 0.000000 0.000000 0.000000 10.000000 
R_rear_hand03 0.000000 0.000000 0.000000 0.000000 0.000000 0.000000 10.000000 
Rope4_Seg01 0.000000 0.000000 0.000000 0.000000 0.000000 0.000000 10.000000 
Rope4_Seg02 0.000000 0.000000 0.000000 0.000000 0.000000 0.000000 10.000000 
Rope4_Seg03 0.000000 0.000000 0.000000 0.000000 0.000000 0.000000 10.000000 
Rope4_Seg04 0.000000 0.000000 0.000000 0.000000 0.000000 0.000000 10.000000 
Rope4_Seg05 0.000000 0.000000 0.000000 0.000000 0.000000 0.000000 10.000000 
Rope4_Seg06 0.000000 0.000000 0.000000 0.000000 0.000000 0.000000 10.000000 
Rope4_Seg07 0.000000 0.000000 0.000000 0.000000 0.000000 0.000000 10.000000 
Rope4_Seg08 0.000000 0.000000 0.000000 0.000000 0.000000 0.000000 10.000000 
Rope4_Seg09 0.000000 0.000000 0.000000 0.000000 0.000000 0.000000 10.000000 
L_rear_hand01 0.000000 0.000000 0.000000 0.000000 0.000000 0.000000 10.000000 
L_rear_hand02 0.000000 0.000000 0.000000 0.000000 0.000000 0.000000 10.000000 
L_rear_hand03 0.000000 0.000000 0.000000 0.000000 0.000000 0.000000 10.000000 
#Beginning of Data. Separated by tabs
#Fr	Tx	Ty	Tz	Rx	Ry	Rz	SF
[MASTER]
16 0.000000 0.000000 0.000000 0.001660 0.001660 0.001660 0.000000
17 0.000000 0.000000 0.000000 0.001660 0.001660 0.001660 0.000000
[root]
16 -16.502245 -199.343781 1093.534668 -85.747307 -61.785316 -93.080688 1111.678223
17 -16.502245 -199.343781 1093.534668 -85.747307 -61.785316 -93.080688 1111.678223
[chest]
16 -84.512650 -34.090519 0.000000 2.349026 -1.427595 -121.580086 91.129311
17 -84.512650 -34.090519 0.000000 2.344161 -1.415743 -121.416733 91.129311
[L_mid_tent01]
16 27.299500 22.177483 -249.917984 -16.717957 2.035135 131.450150 252.380859
17 27.299500 22.177483 -249.917984 -16.725578 2.065412 131.652908 252.380859
[R_mid_tent01]
16 23.228794 24.509907 226.238495 -175.140350 2.157428 120.212723 228.744751
17 23.228794 24.509907 226.238495 -175.141510 2.157535 120.412605 228.744751
[spine01]
16 -0.361383 -0.195265 0.000000 -0.000001 -0.000007 22.052340 0.410763
17 -0.361383 -0.195265 0.000000 -0.000001 -0.000007 22.052340 0.410763
[Bip01_Neck]
16 165.484543 71.581718 0.000119 175.896118 1.177290 24.871183 180.302734
17 165.484543 71.581718 0.000119 175.896118 1.177290 24.871183 180.302734
[L_humerus]
16 -13.983130 -135.272980 -120.471481 -91.668335 0.804969 -167.458282 181.680161
17 -13.983130 -135.272980 -120.471481 -91.668335 0.804969 -167.458282 181.680161
[R_humerus]
16 -13.983309 -135.273102 125.287651 103.000740 1.729733 -169.272232 184.909012
17 -13.983309 -135.273102 125.287651 103.000740 1.729733 -169.272232 184.909012
[weapon_bone]
16 235.964890 -300.705902 0.000000 0.000000 -89.951546 -128.212341 382.234833
17 235.964890 -300.705902 0.000000 0.000000 -89.951546 -128.212341 382.234833
[Bip01_Head]
16 102.819809 23.735481 5.410404 3.150732 3.423701 -20.839092 105.662476
17 102.819809 23.735479 5.410404 3.150732 3.423701 -20.839092 105.662476
[eye_left_bone]
16 -24.626970 125.451866 -64.772606 0.000000 -90.000000 -99.840431 143.318359
17 -24.626970 125.451866 -64.772606 0.000000 -90.000000 -99.840431 143.318359
[eye_right_bone]
16 -24.626970 125.451866 64.327362 0.000000 -89.960434 80.159386 143.117676
17 -24.626970 125.451866 64.327362 0.000000 -89.960434 80.159386 143.117676
[L_forearm]
16 322.776093 0.000000 -0.000119 0.000017 0.002347 -89.149834 322.776093
17 322.776093 0.000000 -0.000119 0.000017 0.002347 -89.149834 322.776093
[L_front_hand]
16 241.149185 -0.042021 -3.300071 -177.732803 -0.044296 -80.275436 241.171753
17 241.149185 -0.042021 -3.300071 -177.732803 -0.044222 -80.279144 241.171753
[L_weapon_bone]
16 156.183838 0.000000 0.000000 0.000014 0.000007 0.000001 156.183838
17 156.183838 0.000000 0.000000 0.000014 0.000007 0.000001 156.183838
[L_front_hand01_01]
16 86.095154 20.947098 -0.655860 0.405585 -0.442306 -4.620490 88.609184
17 86.095154 20.947098 -0.655860 0.405585 -0.442306 -4.620490 88.609184
[L_front_hand02_01]
16 86.935165 -11.437475 24.513514 116.959450 3.630817 1.495453 91.046425
17 86.935165 -11.437475 24.513514 116.959450 3.630817 1.495453 91.046425
[L_front_hand03_01]
16 86.637497 -14.123976 -20.424902 -118.420097 -4.656303 -0.152527 90.126129
17 86.637497 -14.123976 -20.424902 -118.420097 -4.656303 -0.152527 90.126129
[L_front_hand01_02]
16 71.020905 -0.000179 0.000030 0.000004 -0.000005 -8.379269 71.020905
17 71.020905 -0.000179 0.000030 0.000004 -0.000005 -8.379269 71.020905
[L_front_hand02_02]
16 71.020927 -0.000119 0.000060 -0.000005 -0.000004 -8.379259 71.020927
17 71.020927 -0.000119 0.000060 -0.000005 -0.000004 -8.379259 71.020927
[L_front_hand03_02]
16 71.020905 -0.000060 0.000060 0.000015 -0.000040 -8.379267 71.020905
17 71.020905 -0.000060 0.000060 0.000015 -0.000040 -8.379267 71.020905
[R_forearm]
16 322.776428 -0.000060 0.000030 0.210688 -0.040084 -80.303627 322.776428
17 322.776428 -0.000060 0.000030 0.210685 -0.040100 -80.294998 322.776428
[R_front_hand]
16 238.847015 -0.006795 2.210259 -1.670787 -0.430540 -93.209709 238.857239
17 238.847015 -0.006795 2.210259 -1.670761 -0.430639 -93.216507 238.857239
[R_weapon_bone]
16 155.664093 0.002503 -0.000030 0.003487 0.001180 -90.988930 155.664078
17 155.664093 0.002503 -0.000030 0.003487 0.001180 -90.988930 155.664078
[R_front_hand01_01]
16 87.624611 14.231146 22.918642 -116.960213 3.496675 -1.324139 91.683487
17 87.624611 14.231146 22.918642 -116.960213 3.496675 -1.324139 91.683487
[R_front_hand02_01]
16 89.356956 14.367283 -19.491137 118.419647 -4.257089 0.609827 92.579636
17 89.356956 14.367283 -19.491137 118.419647 -4.257089 0.609827 92.579636
[R_front_hand03_01]
16 87.286232 -22.307278 -0.143439 -0.387970 -0.231462 4.232001 90.091743
17 87.286232 -22.307278 -0.143439 -0.387970 -0.231462 4.232001 90.091743
[R_front_hand01_02]
16 71.020905 0.000060 0.000119 -0.000005 -0.000020 8.379271 71.020905
17 71.020905 0.000060 0.000119 -0.000005 -0.000020 8.379271 71.020905
[R_front_hand02_02]
16 71.020844 -0.000030 -0.000119 0.000000 -0.000021 8.379271 71.020836
17 71.020844 -0.000030 -0.000119 0.000000 -0.000021 8.379271 71.020836
[R_front_hand03_02]
16 71.020905 0.000000 0.000030 -0.000001 -0.000020 8.379275 71.020905
17 71.020905 0.000000 0.000030 -0.000001 -0.000020 8.379275 71.020905
[null_rope01_connect]
16 328.732483 0.000000 -0.000238 110.113480 -73.355255 -89.714073 328.732483
17 328.732483 0.000000 -0.000238 109.998871 -73.341431 -89.807320 328.732483
[Rope1_Seg01]
16 0.000000 0.000000 0.000000 76.223656 14.967263 81.105896 0.000000
17 0.000000 0.000000 0.000000 76.266457 14.522696 80.955292 0.000000
[Rope1_Seg02]
16 139.999863 -0.000179 0.000000 63.895615 -9.767332 41.915627 139.999863
17 139.999863 -0.000179 0.000000 64.285370 -9.561461 41.596405 139.999863
[Rope1_Seg03]
16 139.999924 0.000060 -0.000060 61.594761 17.763935 21.249664 139.999924
17 139.999924 0.000060 -0.000060 61.932686 18.129999 21.501213 139.999924
[Rope1_Seg04]
16 139.999924 -0.000060 -0.000119 14.893404 43.629093 -9.431513 139.999924
17 139.999924 -0.000060 -0.000119 14.252451 43.349499 -9.864667 139.999924
[Rope1_Seg05]
16 139.999832 0.000119 -0.000060 -0.283776 16.858370 -9.555742 139.999832
17 139.999832 0.000119 -0.000060 -0.292157 16.691288 -9.469238 139.999832
[Rope1_Seg06]
16 139.999954 0.000119 -0.000060 -0.373647 6.985471 -4.035446 139.999954
17 139.999954 0.000119 -0.000060 -0.370762 6.911257 -3.990252 139.999954
[Rope1_Seg07]
16 139.999985 0.000060 0.000000 -0.093631 1.705601 -0.974155 139.999985
17 139.999985 0.000060 0.000000 -0.091256 1.662770 -0.949349 139.999985
[Rope1_Seg09]
16 121.602913 0.000119 -0.000089 -89.793175 -1.359789 0.847147 121.602913
17 121.602913 0.000119 -0.000089 -89.793175 -1.359789 0.847147 121.602913
[L_mid_hand01]
16 103.859421 1.038730 8.195221 104.352036 0.341479 -0.444583 104.187431
17 103.859421 1.038730 8.195221 104.352036 0.341479 -0.444583 104.187431
[L_mid_hand02]
16 105.572853 -4.139662 -10.864139 -135.608444 3.905687 -3.381056 106.211075
17 105.572853 -4.139662 -10.864139 -135.608444 3.905687 -3.381056 106.211075
[L_mid_hand03]
16 104.641464 17.579376 -3.913581 -18.761518 -0.324361 2.942912 106.179977
17 104.641464 17.579376 -3.913581 -18.761515 -0.324361 2.942912 106.179977
[null_rope02_connect]
16 328.732849 0.000179 -0.000119 120.653214 84.650826 -90.972595 328.732849
17 328.732849 0.000179 -0.000119 120.423492 84.661201 -90.998421 328.732849
[Rope2_Seg01]
16 0.000076 0.000110 0.000153 -5.605239 50.512875 107.018517 0.000203
17 0.000076 0.000110 0.000153 -5.561361 50.431904 107.078697 0.000203
[Rope2_Seg02]
16 139.999741 -0.000060 -0.000119 -18.003763 -58.862061 -43.624466 139.999756
17 139.999741 -0.000060 -0.000119 -18.026623 -59.117947 -44.248932 139.999756
[Rope2_Seg03]
16 140.000107 0.000030 0.000000 -22.732841 -11.278651 -25.186865 140.000107
17 140.000107 0.000030 0.000000 -22.453789 -10.977383 -24.921967 140.000107
[Rope2_Seg04]
16 139.999802 0.000000 -0.000060 -20.969881 -11.899953 -34.529312 139.999802
17 139.999802 0.000000 -0.000060 -20.986303 -11.904421 -34.719704 139.999802
[Rope2_Seg05]
16 139.999985 -0.000060 0.000119 -10.138181 2.377269 -29.823185 139.999985
17 139.999985 -0.000060 0.000119 -10.020617 2.449967 -29.629637 139.999985
[Rope2_Seg06]
16 139.999893 -0.000030 -0.000119 -1.692759 3.230930 -11.801318 139.999893
17 139.999893 -0.000030 -0.000119 -1.671695 3.216542 -11.728313 139.999893
[Rope2_Seg07]
16 139.999893 0.000060 -0.000060 -0.252314 1.326662 -4.405960 139.999893
17 139.999893 0.000060 -0.000060 -0.246334 1.313774 -4.359658 139.999893
[Rope2_Seg09]
16 121.338966 0.000089 -0.000060 33.793236 -1.359788 -0.847141 121.338966
17 121.338966 0.000089 -0.000060 33.793236 -1.359788 -0.847141 121.338966
[R_mid_hand01]
16 104.680779 11.144459 -10.335981 -47.384266 2.963523 5.452605 105.778534
17 104.680779 11.144459 -10.335981 -47.384258 2.963522 5.452604 105.778534
[R_mid_hand02]
16 104.070427 2.443552 8.231699 75.626297 -2.250001 1.111093 104.424065
17 104.070427 2.443552 8.231699 75.626297 -2.250001 1.111093 104.424065
[R_mid_hand03]
16 106.028137 -11.221827 -5.996406 -164.381912 2.495983 -6.140520 106.788818
17 106.028137 -11.221827 -5.996406 -164.381927 2.495983 -6.140520 106.788818
[spine02]
16 129.756927 0.001550 0.000119 -3.652003 -2.837073 49.374668 129.756927
17 129.756927 0.001550 0.000119 -3.656235 -2.829888 49.497044 129.756927
[spine03]
16 79.115631 0.000000 -0.000119 5.797876 8.642406 54.149559 79.115631
17 79.115631 0.000000 -0.000119 5.809971 8.634655 54.280899 79.115631
[pelvis]
16 169.435242 0.051022 0.000000 -7.844558 -2.964338 15.158936 169.435257
17 169.435242 0.051022 0.000000 -7.844601 -2.964224 15.160597 169.435257
[null_rope03_connect]
16 -1.257226 -2.466202 137.391083 145.713379 -84.036774 -134.421432 137.418976
17 -1.257226 -2.466202 137.391083 145.524612 -84.045044 -134.479004 137.418976
[null_rope04_connect]
16 -1.259640 -2.480268 -137.844437 145.713379 -84.036774 -134.421432 137.872513
17 -1.259640 -2.480268 -137.844437 145.524612 -84.045044 -134.479004 137.872513
[Rope3_Seg01]
16 0.000010 0.000038 -0.000114 -168.739914 73.571457 -105.010078 0.000121
17 0.000010 0.000038 -0.000114 -168.563217 73.442673 -104.884148 0.000121
[Rope3_Seg02]
16 139.999924 -0.000119 0.000060 -11.162937 -19.999308 11.929999 139.999924
17 139.999924 -0.000119 0.000060 -11.242939 -20.084375 12.018139 139.999924
[Rope3_Seg03]
16 139.999924 -0.000119 0.000119 -20.863947 -46.451847 23.773989 139.999924
17 139.999924 -0.000119 0.000119 -20.974285 -46.576405 23.894360 139.999924
[Rope3_Seg04]
16 139.999924 0.000119 0.000000 -0.393356 -22.927746 4.336551 139.999924
17 139.999924 0.000119 0.000000 -0.374235 -22.875343 4.314425 139.999924
[Rope3_Seg05]
16 139.999924 -0.000238 0.000060 8.936206 -62.538040 16.706577 139.999924
17 139.999924 -0.000238 0.000060 8.927749 -62.697121 16.831715 139.999924
[Rope3_Seg06]
16 139.999893 -0.000119 -0.000060 11.491967 -40.441818 26.487114 139.999893
17 139.999893 -0.000119 -0.000060 11.482568 -40.236435 26.411020 139.999893
[Rope3_Seg07]
16 139.999771 0.000060 -0.000119 2.890837 -5.055287 5.888606 139.999771
17 139.999771 0.000060 -0.000119 2.881414 -5.036916 5.869594 139.999771
[Rope3_Seg08]
16 139.999985 -0.000060 0.000000 1.463784 -1.923521 2.500151 139.999985
17 139.999985 -0.000060 0.000000 1.462237 -1.921246 2.496906 139.999985
[Rope3_Seg09]
16 90.185997 -0.000179 -0.000060 89.793228 -1.359877 -0.847183 90.185997
17 90.185997 -0.000179 -0.000060 89.793228 -1.359877 -0.847183 90.185997
[R_rear_hand01]
16 103.366196 -6.073594 -10.757982 -156.049316 6.070419 -2.795869 104.101845
17 103.366196 -6.073594 -10.757982 -156.049316 6.070419 -2.795869 104.101845
[R_rear_hand02]
16 100.509819 12.039542 -7.992327 -38.708435 1.958051 5.461186 101.543350
17 100.509819 12.039542 -7.992327 -38.708439 1.958052 5.461187 101.543350
[R_rear_hand03]
16 101.539970 5.215704 5.435467 84.307625 -2.361032 4.099037 101.819031
17 101.539970 5.215704 5.435467 84.307625 -2.361032 4.099037 101.819031
[Rope4_Seg01]
16 0.000008 0.000053 -0.000175 84.219131 77.097633 -76.842415 0.000184
17 0.000007 0.000052 -0.000177 84.097908 76.972092 -76.918434 0.000185
[Rope4_Seg02]
16 139.999985 0.000060 0.000119 5.131293 5.828236 -14.917651 139.999985
17 139.999985 0.000060 0.000119 5.160180 5.870671 -14.987235 139.999985
[Rope4_Seg03]
16 139.999924 0.000000 -0.000238 4.815983 11.707264 -49.397110 139.999924
17 139.999924 0.000000 -0.000238 4.799213 11.759457 -49.640381 139.999924
[Rope4_Seg04]
16 139.999985 0.000000 0.000119 -2.949010 2.992915 -35.962891 139.999985
17 139.999985 0.000000 0.000119 -2.960345 2.970927 -35.819466 139.999985
[Rope4_Seg05]
16 139.999802 -0.000060 -0.000119 -9.460850 6.365746 -31.926168 139.999802
17 139.999802 -0.000060 -0.000119 -9.527835 6.400049 -32.058819 139.999802
[Rope4_Seg06]
16 139.999924 0.000000 0.000060 -22.015335 14.840856 -47.881279 139.999924
17 139.999924 0.000000 0.000060 -21.983337 14.865328 -47.781578 139.999924
[Rope4_Seg07]
16 139.999802 0.000000 0.000000 -5.611829 9.807421 -14.540109 139.999802
17 139.999802 0.000000 0.000000 -5.571858 9.767712 -14.461471 139.999802
[Rope4_Seg08]
16 139.999924 0.000000 0.000119 -2.381740 2.491009 -3.093462 139.999924
17 139.999924 0.000000 0.000119 -2.377227 2.481495 -3.080288 139.999924
[Rope4_Seg09]
16 90.185791 0.000060 0.000060 -135.617828 2.228885 0.850567 90.185791
17 90.185791 0.000060 0.000060 -135.617828 2.228885 0.850567 90.185791
[L_rear_hand01]
16 101.696655 -8.392275 -7.654577 -38.746349 0.246096 177.290207 102.329041
17 101.696655 -8.392275 -7.654577 -38.746338 0.246096 177.290207 102.329041
[L_rear_hand02]
16 102.726799 -1.568258 5.773216 84.314880 -1.139137 176.250763 102.900848
17 102.726799 -1.568258 5.773216 84.314880 -1.139137 176.250763 102.900848
[L_rear_hand03]
16 104.552910 9.721220 -10.420293 -155.747955 -4.630845 179.564758 105.519653
17 104.552910 9.721220 -10.420293 -155.747955 -4.630845 179.564758 105.519653
